<svg id="Layer_1" data-name="Layer 1" xmlns="http://www.w3.org/2000/svg" viewBox="0 0 686.52 293.55"><defs><style>.cls-1{fill:none;stroke:#231f20;stroke-linecap:round;stroke-linejoin:round;stroke-width:4px;}.cls-2{fill:#231f20;}</style></defs><title>Hermes-logo-esp</title><path class="cls-1" d="M305.92,449.4c-15.65-17.9-135.28-75-141.55-79.26-11.05-7.46-5.72-18.05,9-10.46,9,4.64,120.35,58.91,171.2,83.28s38.76,101.32,38.76,101.32-3.9,12.57,7.65,19.14" transform="translate(-156.48 -355.07)"/><path class="cls-1" d="M184.87,380.75c-12.6-7.94-23,6.24,1.45,15.76,23.2,9.05,112.38,54.67,122.43,72.2" transform="translate(-156.48 -355.07)"/><path class="cls-1" d="M192.71,399.19c-13.64-7.66-23.27,3.2,1.36,19.15,7.79,5,18.61,10.72,30.3,17.19,37.48,20.76,80,41.66,85.26,49.42" transform="translate(-156.48 -355.07)"/><path class="cls-1" d="M224.37,435.53c-31.2-17.25-26.12,5.35-11.78,13.28s41.2,22.4,41.2,22.4,58.89,24.28,64.25,39.85" transform="translate(-156.48 -355.07)"/><path class="cls-1" d="M266,476.55c-29.82-14.26-27.7,7.7-3.55,16.94,15,5.74,38.21,19.86,38.21,19.86s13.76,28.88,28.06,28.11" transform="translate(-156.48 -355.07)"/><path class="cls-1" d="M316.28,535.71s-12.93,5.24,3.21,15c12.08,7.3,28.61,2.72,39.42,2.92" transform="translate(-156.48 -355.07)"/><path class="cls-1" d="M342.51,554.57c-18.45,2.41-16.84,14.71-13.45,18,7,6.88,32.13-1.59,32.13-1.59-16,5.26-21.27,10.41-17.79,16.42,0,0,2.63,7.74,25.43-3.33" transform="translate(-156.48 -355.07)"/><path class="cls-1" d="M376.81,599.78s-15.45,9.57-21.19,2.77c0,0-6.64-10.13,5.6-15.13" transform="translate(-156.48 -355.07)"/><path class="cls-1" d="M393,616s-29.5,5.18-27.36-11.39" transform="translate(-156.48 -355.07)"/><path class="cls-1" d="M363.31,456.87c-10.86-10.72-26.69-3.78-15.9,8.93,6.93,8.16,19.06,21.69,20,26.6" transform="translate(-156.48 -355.07)"/><path class="cls-1" d="M358.25,508.63c-5.83-14-22.37-27.4-20.61-34.5,1.39-5.59,8.94-7.48,16.69-.25" transform="translate(-156.48 -355.07)"/><path class="cls-1" d="M351.63,497.38c-12.1-18.45-24.55-11.24-17.65.79,5.17,9,13,23.93,21.92,28.33" transform="translate(-156.48 -355.07)"/><path class="cls-1" d="M335.42,438.56" transform="translate(-156.48 -355.07)"/><path class="cls-1" d="M693.56,454.89c15.64-17.9,135.28-75,141.54-79.26,11.06-7.46,5.73-18.05-9-10.46-9,4.64-120.34,58.9-171.19,83.28s-38.76,101.31-38.76,101.31,3.9,12.58-7.66,19.15" transform="translate(-156.48 -355.07)"/><path class="cls-1" d="M814.61,386.24c12.6-7.94,22.95,6.24-1.45,15.76-23.21,9.05-112.38,54.67-122.43,72.2" transform="translate(-156.48 -355.07)"/><path class="cls-1" d="M806.77,404.68c13.63-7.66,23.27,3.2-1.36,19.15-7.79,5-18.62,10.72-30.3,17.19-37.48,20.76-80,41.66-85.27,49.42" transform="translate(-156.48 -355.07)"/><path class="cls-1" d="M775.11,441c31.2-17.25,26.11,5.34,11.77,13.28s-41.2,22.4-41.2,22.4S686.8,501,681.44,516.55" transform="translate(-156.48 -355.07)"/><path class="cls-1" d="M733.53,482c29.82-14.26,27.69,7.7,3.54,16.94-15,5.74-38.2,19.85-38.2,19.85S685.11,547.72,670.8,547" transform="translate(-156.48 -355.07)"/><path class="cls-1" d="M683.2,541.19s12.92,5.24-3.21,15c-12.08,7.29-28.62,2.72-39.42,2.92" transform="translate(-156.48 -355.07)"/><path class="cls-1" d="M657,560.05c18.45,2.42,16.84,14.72,13.45,18.05-7,6.88-32.13-1.59-32.13-1.59,16,5.26,21.27,10.41,17.79,16.42,0,0-2.63,7.74-25.44-3.33" transform="translate(-156.48 -355.07)"/><path class="cls-1" d="M622.66,605.26s15.46,9.57,21.2,2.78c0,0,6.64-10.13-5.6-15.13" transform="translate(-156.48 -355.07)"/><path class="cls-1" d="M606.53,621.48s29.5,5.18,27.36-11.39" transform="translate(-156.48 -355.07)"/><path class="cls-1" d="M636.17,462.36c10.86-10.72,26.68-3.78,15.9,8.92-6.94,8.17-19.07,21.7-20,26.6" transform="translate(-156.48 -355.07)"/><path class="cls-1" d="M641.22,514.12c5.83-14,22.38-27.4,20.61-34.5-1.38-5.59-8.94-7.48-16.68-.25" transform="translate(-156.48 -355.07)"/><path class="cls-1" d="M647.84,502.86c12.1-18.44,24.55-11.23,17.65.79-5.16,9-13,23.93-21.91,28.34" transform="translate(-156.48 -355.07)"/><path class="cls-1" d="M664.06,444.05" transform="translate(-156.48 -355.07)"/><path class="cls-2" d="M419.85,642,407.7,603.36c-4.07,1.28-6.1,2-10.13,3.38L411,645c-3.94,1.39-5.89,2.12-9.78,3.66q-15.06-38-30.11-76c5.06-2,7.6-3,12.71-4.75q5.85,16.62,11.71,33.23c4.11-1.45,6.17-2.14,10.32-3.44Q400.6,580.79,395.32,564c5.16-1.62,7.75-2.38,12.95-3.8l21.54,78.9C425.81,640.19,423.82,640.78,419.85,642Z" transform="translate(-156.48 -355.07)"/><path class="cls-2" d="M460.81,623.45c.91,6.22-3.21,9.8-12.6,11.68s-14.39.24-16-6Q427.1,608.92,422,588.69c-1.55-6.09,2.89-10.69,14.36-13s17.52.21,18.43,6.43c1.29,8.77,1.93,13.16,3.22,21.94-8.13,1.19-12.18,1.92-20.22,3.67,1.67,7.7,2.5,11.55,4.18,19.26.49,2.28,2.22,3.16,5.17,2.57s4.21-2.06,3.78-4.37c-.83-4.55-1.25-6.83-2.08-11.39,4.13-.75,6.2-1.09,10.35-1.7C459.81,616.65,460.14,618.92,460.81,623.45Zm-17.5-39.55c-.44-2.42-2.36-3.09-5.83-2.4s-5,2-4.46,4.46l3.73,17.21c3.89-.84,5.84-1.23,9.74-1.95C445.22,594.29,444.58,590.83,443.31,583.9Z" transform="translate(-156.48 -355.07)"/><path class="cls-2" d="M466.84,631.7Q463,602,459.2,572.32c4.45-.57,6.68-.82,11.14-1.24.25,1.71.38,2.57.63,4.27l.88-.08c1.71-3.12,4.49-5.11,9.41-5.41a17.79,17.79,0,0,1,4.05.27l.3,6a13.24,13.24,0,0,0-4.42-.25c-5.93.37-8.65,2.27-9.1,6.76q2.22,24,4.43,48C472.65,631,470.71,631.2,466.84,631.7Z" transform="translate(-156.48 -355.07)"/><path class="cls-2" d="M528.39,630.79q2.52-25.5,5-51c.22-2.2-1.44-3.37-4.51-3.62s-4.47.64-5.7,2.65l-3.42,51.26c-3.81-.26-5.72-.35-9.53-.47l1.62-51.22c.07-2.21-1.44-3.26-4.52-3.31-3.3-.06-4.64,1.06-5.73,3v51.36c-3.89,0-5.83,0-9.72.18l-2.13-59.83c4.47-.16,6.71-.2,11.18-.21.1,1.53.14,2.29.23,3.82h.88c2.44-3,5.39-4.17,9.64-4,5.6.17,9.54,2.15,10.9,5.2,2.86-3.15,7-4.21,11.69-3.75,6.92.69,11.66,4.22,11,9.1l-7,52C534.31,631.41,532.34,631.18,528.39,630.79Z" transform="translate(-156.48 -355.07)"/><path class="cls-2" d="M572.88,629.64c-1.59,6.08-6.82,7.76-16.2,5.82s-13.31-5.39-12.34-11.72q3.17-20.64,6.34-41.28c1-6.21,6.79-8.72,18.25-6.35s16.1,7,14.51,13.13c-2.24,8.58-3.37,12.87-5.61,21.45-8-2.09-12-3-20.09-4.53l-3.67,19.37c-.44,2.3.81,3.78,3.76,4.38s4.68-.25,5.19-2.53l2.52-11.3c4.11.91,6.16,1.41,10.23,2.48C574.61,623,574,625.2,572.88,629.64Zm-.7-43.26c.53-2.4-1-3.76-4.44-4.48s-5.39-.06-5.85,2.36c-1.31,6.92-2,10.38-3.28,17.31,3.9.73,5.85,1.14,9.73,2C569.87,596.7,570.64,593.26,572.18,586.38Z" transform="translate(-156.48 -355.07)"/><path class="cls-2" d="M606.63,606l3.5-9.86c.62-1.75-.56-3.1-4.16-4.31-3.17-1.07-5.31-1-5.87.8-1.41,4.42-2.11,6.62-3.51,11-1,3.17-.61,4.1,1.9,6.44,3.5,3.26,7.16,5.59,9.84,8.45,2.84,3,3.56,5.07,1.48,10.34l-4.9,12.37c-2.08,5.27-7,6-16.14,2.87-9.85-3.33-13.22-7-11.7-12.5l3-10.67c3.82,1.06,5.72,1.63,9.51,2.82-1.35,4.28-2,6.42-3.38,10.69-.67,2.12.52,3.38,3.75,4.46,3.05,1,4.76.73,5.42-1.13,1.79-5.06,2.69-7.59,4.49-12.65.86-2.44.22-3.65-2.51-6.34-3-3-7-5.76-9.37-8.52-2.55-3-3-5.24-1.78-9.75,1.32-4.69,2-7,3.29-11.74,1.27-4.51,7.72-5.77,18-2.3,10.76,3.61,14.85,8.81,12.91,13.74-1.49,3.81-2.24,5.71-3.74,9.52C612.69,608.21,610.67,607.46,606.63,606Z" transform="translate(-156.48 -355.07)"/></svg>