<?xml version="1.0" standalone="no"?>
<!DOCTYPE svg PUBLIC "-//W3C//DTD SVG 20010904//EN"
 "http://www.w3.org/TR/2001/REC-SVG-20010904/DTD/svg10.dtd">
<svg version="1.0" xmlns="http://www.w3.org/2000/svg"
 width="470.000000pt" height="329.000000pt" viewBox="0 0 470.000000 329.000000"
 preserveAspectRatio="xMidYMid meet">

<g transform="translate(0.000000,329.000000) scale(0.100000,-0.100000)"
fill="#000000" stroke="none">
<path d="M4223 2950 c-35 -17 -63 -34 -63 -40 0 -5 21 -10 48 -10 36 0 52 -6
69 -24 l23 -23 -38 -49 c-20 -27 -47 -59 -58 -73 l-22 -23 -10 33 c-22 69 -21
73 23 80 39 6 39 6 -12 8 -60 1 -60 0 -38 -73 20 -64 20 -64 -12 -68 -25 -3
-28 -7 -25 -36 2 -22 -2 -34 -12 -38 -9 -3 -14 -10 -11 -15 3 -4 -10 -29 -30
-54 -19 -26 -35 -51 -35 -56 0 -5 -9 -9 -20 -9 -12 0 -44 -13 -73 -30 -35 -20
-108 -43 -226 -71 -144 -35 -179 -47 -207 -71 -30 -27 -36 -28 -72 -18 -50 13
-371 -22 -384 -42 -4 -7 -8 -28 -8 -45 0 -31 1 -32 33 -27 17 3 48 10 67 15
19 5 44 9 55 9 33 -1 -2 -15 -83 -35 -65 -15 -74 -21 -87 -49 -8 -17 -31 -50
-51 -73 -27 -32 -32 -43 -20 -43 40 0 452 113 494 135 36 19 56 24 92 19 44
-5 49 -2 204 101 87 58 161 103 163 101 4 -4 -63 -92 -196 -259 -14 -16 -20
-28 -14 -26 12 4 96 105 183 217 36 46 62 71 76 71 28 1 112 100 94 111 -10 6
-2 21 30 59 45 53 55 59 64 39 3 -7 4 -4 3 7 -2 16 5 21 31 23 33 3 34 5 28
38 l-7 34 72 0 72 0 -7 42 c-10 61 -25 82 -19 25 l6 -47 -52 0 c-28 0 -51 3
-51 6 0 4 17 27 38 52 20 24 44 54 53 65 15 18 19 19 49 6 23 -10 38 -27 52
-58 24 -57 36 -44 39 40 3 78 -3 89 -41 89 -22 0 -28 4 -23 16 4 12 0 14 -19
9 -20 -5 -25 -1 -33 27 -6 18 -17 34 -25 35 -8 1 -43 -11 -77 -27z m-78 -290
c-3 -5 -10 -10 -16 -10 -5 0 -9 5 -9 10 0 6 7 10 16 10 8 0 12 -4 9 -10z m39
-25 c4 -10 -1 -15 -14 -15 -13 0 -18 5 -14 15 4 8 10 15 14 15 4 0 10 -7 14
-15z m-499 -295 c-49 -18 -105 -26 -92 -14 7 8 105 32 127 32 8 0 -7 -8 -35
-18z"/>
<path d="M2723 2823 c-74 -4 -85 -10 -58 -33 13 -11 36 -11 118 -1 56 7 114
15 129 18 24 5 30 -1 70 -71 37 -65 70 -98 83 -84 2 2 -15 33 -38 69 -23 37
-48 76 -55 88 -13 22 -37 24 -249 14z"/>
<path d="M2821 2773 c-52 -7 -97 -15 -100 -18 -2 -3 2 -12 10 -21 14 -13 26
-13 112 2 60 11 97 22 97 30 0 20 -20 21 -119 7z"/>
<path d="M2868 2723 c-74 -14 -95 -27 -64 -39 18 -7 157 29 157 41 1 14 -8 14
-93 -2z"/>
<path d="M3050 2723 c0 -5 9 -23 20 -41 11 -18 18 -37 16 -41 -3 -5 -33 -14
-66 -21 -59 -12 -79 -23 -62 -34 4 -2 50 2 102 10 230 35 254 30 50 -11 -111
-22 -147 -34 -200 -66 -112 -67 -105 -54 -86 -161 10 -51 24 -124 31 -162 l13
-70 -45 -89 c-74 -149 -73 -151 41 -38 l105 105 7 69 c6 61 13 79 56 143 l49
73 60 3 61 3 29 90 c16 50 29 100 29 112 0 12 7 26 17 31 14 8 13 11 -8 24
-13 8 -47 29 -75 46 -38 24 -62 32 -97 32 -26 0 -47 -3 -47 -7z"/>
<path d="M2898 2683 c-55 -14 -69 -25 -50 -37 14 -8 135 28 140 42 5 15 -17
14 -90 -5z"/>
<path d="M2942 2647 c-24 -7 -42 -16 -40 -22 6 -21 118 3 118 25 0 12 -22 11
-78 -3z"/>
<path d="M2355 2479 c-19 -12 -48 -19 -79 -19 -37 0 -92 -17 -225 -70 -146
-58 -181 -76 -203 -104 -22 -27 -36 -34 -78 -40 -41 -5 -93 -32 -273 -139
-122 -73 -248 -148 -280 -166 -59 -33 -77 -55 -77 -90 0 -32 13 -32 71 -1 71
38 83 38 75 -1 -4 -21 -2 -29 6 -27 15 5 79 98 74 107 -13 20 30 35 234 79
l224 49 22 39 22 39 78 7 c48 4 139 24 231 52 84 25 157 46 163 46 5 0 20 -16
32 -35 13 -19 28 -35 33 -35 6 1 37 39 70 86 54 77 104 135 80 94 -15 -26 -77
-124 -98 -155 -12 -16 -43 -63 -69 -102 -27 -40 -52 -73 -56 -73 -5 0 -15 11
-22 25 -11 21 -10 32 9 86 26 69 17 95 -15 46 -98 -150 -139 -216 -183 -294
-28 -50 -51 -95 -51 -99 0 -5 43 -31 96 -58 104 -53 101 -53 224 -16 l66 20
39 82 c21 46 65 138 97 205 44 90 66 152 85 235 44 197 53 169 14 -42 -14 -75
-38 -150 -85 -264 -36 -87 -63 -162 -61 -166 3 -5 32 8 65 27 58 35 62 40 135
176 l74 140 -14 136 c-24 216 -21 208 -62 222 -19 6 -108 12 -196 14 -145 3
-165 1 -192 -16z m-145 -88 c0 -5 -22 -16 -48 -24 -26 -9 -57 -19 -68 -23 -33
-12 0 17 43 37 42 19 73 24 73 10z m-476 -182 c-8 -14 -94 -52 -101 -46 -5 6
84 56 100 57 5 0 5 -5 1 -11z"/>
<path d="M1955 1674 c-27 -19 -51 -38 -53 -43 -2 -5 17 -20 42 -35 42 -25 52
-26 182 -26 l138 0 68 41 c43 26 66 45 60 51 -6 6 -24 2 -48 -10 -71 -36 -76
-35 -196 13 -63 25 -120 45 -128 44 -8 0 -37 -16 -65 -35z"/>
<path d="M2345 1595 c-54 -47 -76 -52 -241 -54 -141 -2 -142 -2 -193 29 -29
16 -56 30 -60 30 -16 0 -131 -82 -126 -89 2 -5 45 -23 95 -41 l92 -32 178 33
178 32 69 63 c71 66 78 89 8 29z"/>
<path d="M2352 1542 l-61 -68 -200 -43 c-110 -23 -205 -40 -211 -36 -6 4 -58
24 -116 45 l-104 38 -53 -32 c-116 -72 -157 -99 -157 -106 0 -4 24 -18 53 -30
28 -12 114 -51 190 -87 l137 -65 178 27 c148 22 191 33 262 64 172 76 290 134
290 143 0 5 -11 25 -23 46 -88 139 -110 172 -117 172 -4 0 -34 -31 -68 -68z"/>
<path d="M2518 1319 c-21 -11 -95 -45 -165 -76 -71 -31 -130 -58 -132 -60 -3
-2 35 -44 85 -94 71 -72 98 -92 132 -101 41 -10 63 -31 48 -45 -3 -3 -53 2
-111 12 l-104 18 -160 -104 c-88 -57 -169 -109 -180 -114 -10 -6 -37 -24 -60
-40 -41 -28 -42 -28 -77 -11 -20 9 -41 13 -47 9 -30 -17 -167 -148 -159 -151
19 -6 1109 293 1129 310 32 26 29 40 -87 336 -28 72 -57 132 -63 132 -7 -1
-29 -10 -49 -21z m-228 -427 c0 -9 -97 -42 -121 -42 -8 1 6 12 31 25 45 24 90
32 90 17z"/>
<path d="M1339 1183 c-64 -65 -135 -145 -157 -179 l-40 -60 -101 -28 c-73 -21
-104 -34 -115 -51 -8 -12 -21 -28 -28 -36 -8 -8 -45 -54 -83 -104 -107 -137
-93 -126 -133 -109 -20 8 -39 11 -42 7 -15 -16 -171 -254 -177 -268 -3 -8 0
-15 5 -15 6 0 102 60 214 133 112 74 276 182 366 241 90 58 286 179 437 268
151 88 275 164 275 168 0 5 -246 127 -295 146 -6 2 -62 -49 -126 -113z m107
28 c-8 -12 -137 -116 -156 -125 -8 -4 18 24 58 63 41 39 80 71 89 71 8 0 12
-4 9 -9z m-478 -389 c-6 -16 -89 -85 -94 -79 -9 8 66 87 83 87 8 0 13 -4 11
-8z"/>
<path d="M1908 1067 c-21 -31 -22 -65 -4 -175 l13 -83 -41 -39 c-44 -43 -56
-48 -56 -25 0 8 7 15 16 15 11 0 14 6 9 23 -5 17 -4 18 4 7 17 -25 23 -4 11
40 -6 23 -9 44 -6 47 2 3 10 -13 16 -36 14 -52 34 -55 26 -3 -3 20 -8 63 -12
95 -6 55 -7 57 -25 41 -13 -12 -16 -24 -12 -46 4 -21 2 -28 -8 -26 -10 2 -13
-6 -12 -24 1 -19 -3 -28 -13 -28 -16 0 -18 -9 -4 -44 7 -20 6 -24 -5 -19 -26
9 -16 -26 21 -75 1 -2 30 15 63 37 l60 41 -5 67 c-3 38 -9 106 -12 153 l-7 84
-17 -27z"/>
<path d="M644 1015 c-3 -19 -2 -41 4 -48 5 -6 33 -56 61 -110 l52 -97 -27 -55
c-14 -30 -24 -60 -22 -66 5 -14 78 95 78 117 0 20 -123 294 -132 294 -4 0 -10
-16 -14 -35z"/>
<path d="M642 920 c-8 -20 -5 -34 15 -70 13 -25 18 -37 10 -27 -33 40 -38 -5
-5 -49 12 -16 15 -23 8 -16 -37 33 -40 -2 -5 -41 30 -32 49 -35 40 -7 -5 15
-3 18 10 14 9 -4 15 -3 14 2 -1 5 1 16 5 25 5 11 -9 48 -37 105 -43 84 -46 87
-55 64z"/>
<path d="M650 699 c1 -15 50 -56 50 -41 0 5 -11 19 -25 32 -17 16 -25 19 -25
9z"/>
</g>
</svg>
